<svg width="100" height="28" viewBox="0 0 100 28" fill="none" xmlns="http://www.w3.org/2000/svg">
<g clip-path="url(#clip0_1_320)">
<path d="M25.543 18.7717L24.2528 9.835C23.9214 7.53666 21.921 5.83333 19.5656 5.83333H8.84175C6.4863 5.83333 4.48594 7.53666 4.15452 9.835L2.86434 18.7717C2.60394 20.5683 4.01248 22.1667 5.84713 22.1667C6.65201 22.1667 7.40954 21.8517 7.97769 21.2917L10.6527 18.6667H17.7546L20.4178 21.2917C20.9859 21.8517 21.7553 22.1667 22.5484 22.1667C24.3948 22.1667 25.8034 20.5683 25.543 18.7717ZM13.02 12.8333H10.6527V15.1667H9.46908V12.8333H7.10179V11.6667H9.46908V9.33333H10.6527V11.6667H13.02V12.8333ZM17.7546 11.6667C17.1036 11.6667 16.571 11.1417 16.571 10.5C16.571 9.85833 17.1036 9.33333 17.7546 9.33333C18.4056 9.33333 18.9382 9.85833 18.9382 10.5C18.9382 11.1417 18.4056 11.6667 17.7546 11.6667ZM20.1219 15.1667C19.4709 15.1667 18.9382 14.6417 18.9382 14C18.9382 13.3583 19.4709 12.8333 20.1219 12.8333C20.7729 12.8333 21.3055 13.3583 21.3055 14C21.3055 14.6417 20.7729 15.1667 20.1219 15.1667Z" fill="#2A7AE4"/>
</g>
<path d="M72.7733 17.92C71.9684 18.7134 71.031 19.11 69.961 19.11C69.2981 19.11 68.6732 18.9794 68.0861 18.718C67.5085 18.4567 67.0019 18.0974 66.5663 17.64C66.1402 17.1827 65.7993 16.646 65.5436 16.03C65.2974 15.4047 65.1743 14.7327 65.1743 14.014C65.1743 13.3327 65.2974 12.6934 65.5436 12.096C65.7993 11.4894 66.1449 10.962 66.5805 10.514C67.0255 10.0567 67.5463 9.69736 68.1429 9.43602C68.7395 9.16536 69.3881 9.03002 70.0888 9.03002C71.0357 9.03002 71.8453 9.22602 72.5177 9.61802C73.1994 10.01 73.7108 10.5374 74.0517 11.2L72.5887 12.264C72.333 11.7694 71.9732 11.3914 71.5092 11.13C71.0547 10.8687 70.5575 10.738 70.0178 10.738C69.5917 10.738 69.1987 10.8267 68.8389 11.004C68.4885 11.1814 68.1855 11.424 67.9298 11.732C67.6836 12.04 67.4895 12.3947 67.3475 12.796C67.2149 13.1974 67.1486 13.622 67.1486 14.07C67.1486 14.5367 67.2244 14.9754 67.3759 15.386C67.5274 15.7874 67.7357 16.1374 68.0009 16.436C68.266 16.7347 68.5785 16.9727 68.9383 17.15C69.3076 17.318 69.7053 17.402 70.1314 17.402C71.1067 17.402 71.9874 16.9494 72.7733 16.044V15.344H70.7422V13.93H74.3925V19.04H72.7733V17.92Z" fill="#464646"/>
<path d="M79.3299 19.18C78.7333 19.18 78.1936 19.082 77.7107 18.886C77.2277 18.6807 76.8158 18.4054 76.4749 18.06C76.1341 17.7147 75.8689 17.3134 75.6795 16.856C75.4996 16.3987 75.4097 15.918 75.4097 15.414C75.4097 14.8914 75.4996 14.4014 75.6795 13.944C75.8595 13.4774 76.1199 13.0714 76.4607 12.726C76.8016 12.3714 77.2135 12.0914 77.6965 11.886C78.1889 11.6807 78.7381 11.578 79.3441 11.578C79.9501 11.578 80.4899 11.6807 80.9633 11.886C81.4463 12.0914 81.8534 12.3667 82.1849 12.712C82.5257 13.0574 82.7814 13.4587 82.9519 13.916C83.1318 14.3734 83.2217 14.8494 83.2217 15.344C83.2217 15.4654 83.217 15.582 83.2075 15.694C83.2075 15.806 83.1981 15.8994 83.1791 15.974H77.4266C77.455 16.2634 77.526 16.52 77.6397 16.744C77.7533 16.968 77.9001 17.1594 78.08 17.318C78.2599 17.4767 78.4635 17.598 78.6907 17.682C78.918 17.766 79.1547 17.808 79.4009 17.808C79.7797 17.808 80.1348 17.7194 80.4662 17.542C80.8071 17.3554 81.0391 17.1127 81.1622 16.814L82.7956 17.262C82.521 17.822 82.0807 18.284 81.4747 18.648C80.8781 19.0027 80.1632 19.18 79.3299 19.18ZM81.2616 14.756C81.2143 14.2054 81.0059 13.7667 80.6366 13.44C80.2768 13.104 79.8365 12.936 79.3157 12.936C79.06 12.936 78.8186 12.9827 78.5913 13.076C78.3735 13.16 78.1794 13.2814 78.009 13.44C77.8385 13.5987 77.6965 13.79 77.5828 14.014C77.4787 14.238 77.4171 14.4854 77.3982 14.756H81.2616Z" fill="#464646"/>
<path d="M87.8327 19.18C87.2362 19.18 86.6964 19.082 86.2135 18.886C85.7306 18.6807 85.3187 18.4054 84.9778 18.06C84.6369 17.7147 84.3718 17.3134 84.1824 16.856C84.0025 16.3987 83.9125 15.918 83.9125 15.414C83.9125 14.8914 84.0025 14.4014 84.1824 13.944C84.3623 13.4774 84.6227 13.0714 84.9636 12.726C85.3045 12.3714 85.7164 12.0914 86.1993 11.886C86.6917 11.6807 87.2409 11.578 87.8469 11.578C88.453 11.578 88.9927 11.6807 89.4662 11.886C89.9491 12.0914 90.3563 12.3667 90.6877 12.712C91.0286 13.0574 91.2842 13.4587 91.4547 13.916C91.6346 14.3734 91.7246 14.8494 91.7246 15.344C91.7246 15.4654 91.7198 15.582 91.7104 15.694C91.7104 15.806 91.7009 15.8994 91.6819 15.974H85.9294C85.9578 16.2634 86.0289 16.52 86.1425 16.744C86.2561 16.968 86.4029 17.1594 86.5828 17.318C86.7627 17.4767 86.9663 17.598 87.1936 17.682C87.4208 17.766 87.6576 17.808 87.9038 17.808C88.2825 17.808 88.6376 17.7194 88.969 17.542C89.3099 17.3554 89.5419 17.1127 89.665 16.814L91.2984 17.262C91.0238 17.822 90.5835 18.284 89.9775 18.648C89.3809 19.0027 88.666 19.18 87.8327 19.18ZM89.7644 14.756C89.7171 14.2054 89.5088 13.7667 89.1395 13.44C88.7796 13.104 88.3393 12.936 87.8185 12.936C87.5629 12.936 87.3214 12.9827 87.0941 13.076C86.8763 13.16 86.6822 13.2814 86.5118 13.44C86.3413 13.5987 86.1993 13.79 86.0857 14.014C85.9815 14.238 85.92 14.4854 85.901 14.756H89.7644Z" fill="#464646"/>
<path d="M97.969 19.04L95.81 15.862L94.7874 16.856V19.04H92.8841V8.82002H94.7874V15.022L97.7701 11.718H99.8013L97.0315 14.826L100 19.04H97.969Z" fill="#464646"/>
<path d="M32.2568 9.10002H33.9897L37.8247 19.04H35.8077L34.8703 16.562H31.3478L30.4245 19.04H28.4076L32.2568 9.10002ZM34.5152 15.204L33.1232 11.298L31.6745 15.204H34.5152Z" fill="#2A7AE4"/>
<path d="M38.7319 8.82002H40.6352V16.688C40.6352 16.9587 40.7015 17.1687 40.8341 17.318C40.9667 17.4674 41.156 17.542 41.4022 17.542C41.5159 17.542 41.639 17.5234 41.7715 17.486C41.9136 17.4487 42.0461 17.402 42.1692 17.346L42.4249 18.774C42.1692 18.8954 41.871 18.9887 41.5301 19.054C41.1892 19.1194 40.8814 19.152 40.6068 19.152C40.0103 19.152 39.5463 18.998 39.2149 18.69C38.8929 18.3727 38.7319 17.9247 38.7319 17.346V8.82002Z" fill="#2A7AE4"/>
<path d="M45.5268 19.18C44.7598 19.18 44.1774 18.9374 43.7797 18.452C43.382 17.9667 43.1831 17.248 43.1831 16.296V11.704H45.0865V15.89C45.0865 17.0194 45.4984 17.584 46.3222 17.584C46.6915 17.584 47.0466 17.4767 47.3875 17.262C47.7378 17.038 48.0219 16.702 48.2397 16.254V11.704H50.143V16.884C50.143 17.08 50.1761 17.22 50.2424 17.304C50.3182 17.388 50.4365 17.4347 50.5975 17.444V19.04C50.4081 19.0774 50.2471 19.1007 50.1146 19.11C49.9915 19.1194 49.8778 19.124 49.7737 19.124C49.4328 19.124 49.1535 19.0494 48.9357 18.9C48.7273 18.7414 48.6042 18.5267 48.5664 18.256L48.5238 17.668C48.1923 18.172 47.7662 18.55 47.2454 18.802C46.7246 19.054 46.1517 19.18 45.5268 19.18Z" fill="#2A7AE4"/>
<path d="M56.466 13.328C55.8884 13.3374 55.3723 13.4494 54.9178 13.664C54.4633 13.8694 54.1366 14.182 53.9377 14.602V19.04H52.0344V11.704H53.7815V13.272C53.914 13.02 54.0703 12.796 54.2502 12.6C54.4301 12.3947 54.6242 12.2174 54.8326 12.068C55.0409 11.9187 55.2492 11.8067 55.4575 11.732C55.6753 11.648 55.8836 11.606 56.0825 11.606C56.1866 11.606 56.2624 11.606 56.3097 11.606C56.3666 11.606 56.4186 11.6107 56.466 11.62V13.328Z" fill="#2A7AE4"/>
<path d="M59.4613 19.18C59.1015 19.18 58.7653 19.124 58.4528 19.012C58.1404 18.8907 57.8705 18.7274 57.6432 18.522C57.416 18.3074 57.2361 18.06 57.1035 17.78C56.9804 17.5 56.9188 17.192 56.9188 16.856C56.9188 16.5107 56.9946 16.1934 57.1461 15.904C57.3071 15.6054 57.5249 15.3534 57.7995 15.148C58.0835 14.9427 58.4197 14.784 58.8079 14.672C59.1962 14.5507 59.6223 14.49 60.0863 14.49C60.4177 14.49 60.7396 14.518 61.0521 14.574C61.3741 14.63 61.6581 14.7094 61.9043 14.812V14.392C61.9043 13.9067 61.7623 13.5334 61.4782 13.272C61.2036 13.0107 60.7917 12.88 60.2425 12.88C59.8448 12.88 59.4566 12.95 59.0778 13.09C58.699 13.23 58.3108 13.4354 57.9131 13.706L57.3307 12.516C58.2871 11.8907 59.3193 11.578 60.4272 11.578C61.4972 11.578 62.3257 11.8394 62.9128 12.362C63.5094 12.8754 63.8077 13.622 63.8077 14.602V16.884C63.8077 17.08 63.8408 17.22 63.9071 17.304C63.9828 17.388 64.1012 17.4347 64.2622 17.444V19.04C63.9402 19.1054 63.6609 19.138 63.4242 19.138C63.0643 19.138 62.785 19.0587 62.5861 18.9C62.3967 18.7414 62.2784 18.5314 62.231 18.27L62.1884 17.864C61.857 18.2934 61.4546 18.62 60.9811 18.844C60.5076 19.068 60.001 19.18 59.4613 19.18ZM60.001 17.808C60.323 17.808 60.626 17.752 60.9101 17.64C61.2036 17.528 61.4309 17.3787 61.5919 17.192C61.8002 17.0334 61.9043 16.856 61.9043 16.66V15.82C61.6771 15.736 61.4309 15.6707 61.1658 15.624C60.9006 15.568 60.645 15.54 60.3988 15.54C59.9064 15.54 59.5039 15.652 59.1914 15.876C58.879 16.0907 58.7227 16.366 58.7227 16.702C58.7227 17.0194 58.8458 17.2854 59.092 17.5C59.3382 17.7054 59.6412 17.808 60.001 17.808Z" fill="#2A7AE4"/>
<defs>
<clipPath id="clip0_1_320">
<rect width="28.4075" height="28" fill="white"/>
</clipPath>
</defs>
</svg>
